# xmcd
#
# Track frame offsets: 
#        150
#        17411
#        37391
#        59647
#        76720
#        105607
#        128497
#        161230
#        181494
#
# Disc length: 2732 seconds
#
# Revision: 3
# Processed by: cddbd v1.5.2PL0 Copyright (c) Steve Scherf et al.
# Submitted via: ExactAudioCopyFreeDBPlugin 1.0
#
DISCID=710aaa09
DTITLE=Eric Burdon and Jimmy Whitherspoon - 1971 - Black and White Blues
DYEAR=1971
DGENRE=Blues
TTITLE0=I've Been Drifting - Once Upon A Time
TTITLE1=Steam Roller
TTITLE2=The Laws Must Change
TTITLE3=Have Mercy Judge
TTITLE4=Goin' Down Slow
TTITLE5=Soledad
TTITLE6=Home Dream
TTITLE7=Headin' For Home
TTITLE8=The Time Has Come
EXTD=
EXTT0=
EXTT1=
EXTT2=
EXTT3=
EXTT4=
EXTT5=
EXTT6=
EXTT7=
EXTT8=
PLAYORDER=
